<svg version="1.0" xmlns="http://www.w3.org/2000/svg" viewBox="0 0 920.000000 920.000000"
 preserveAspectRatio="xMidYMid meet">

<g transform="translate(0.000000,920.000000) scale(0.100000,-0.100000)"
fill="#7932ff" stroke="none">
<path d="M4300 9190 c-846 -58 -1568 -304 -2265 -770 -476 -319 -901 -740
-1227 -1216 -390 -571 -638 -1179 -742 -1824 -49 -297 -60 -443 -60 -780 0
-347 12 -489 65 -810 134 -807 502 -1572 1070 -2225 99 -114 336 -349 454
-452 473 -409 1065 -736 1660 -916 672 -204 1396 -248 2130 -131 630 101 1239
348 1805 732 407 277 788 639 1082 1029 463 613 751 1285 867 2018 44 277 55
427 55 755 0 337 -12 484 -60 780 -70 432 -197 828 -395 1230 -357 726 -883
1336 -1535 1782 -658 450 -1348 704 -2128 783 -183 19 -604 27 -776 15z m445
-1520 c58 -22 98 -61 1468 -1429 1604 -1602 1472 -1455 1472 -1636 0 -161 -1
-163 -364 -528 -168 -169 -326 -321 -351 -337 -107 -68 -241 -77 -360 -25 -61
27 -103 66 -652 614 l-588 585 0 -1494 c0 -930 -4 -1518 -10 -1555 -22 -134
-102 -239 -228 -298 l-67 -32 -465 0 c-454 0 -466 0 -518 22 -102 42 -183 123
-225 225 l-22 53 -3 1544 -2 1544 -587 -587 c-628 -627 -623 -624 -747 -647
-68 -12 -139 -5 -216 23 -50 19 -86 51 -378 342 -385 382 -387 386 -387 551 0
92 3 105 33 170 32 67 88 125 1420 1456 873 873 1404 1396 1432 1412 105 60
228 69 345 27z"/>
</g>
</svg>
