<svg width="55" height="55" xmlns="http://www.w3.org/2000/svg"><defs><linearGradient x1="50%" y1="0%" x2="50%" y2="100%" id="a"><stop stop-color="#7932FF" offset="0%"/><stop stop-color="#564FFF" offset="100%"/></linearGradient></defs><g transform="translate(-402 -1933)" fill="url(#a)" fill-rule="evenodd" opacity=".862"><path d="M440.077 1952.038c0-10.514-8.524-19.038-19.039-19.038-10.514 0-19.038 8.524-19.038 19.038a18.95 18.95 0 003.31 10.728l-2.501 7.502 7.502-2.5a18.949 18.949 0 0010.727 3.309c10.515 0 19.039-8.524 19.039-19.039z"/><path d="M457 1969.056c0-8.483-5.577-15.662-13.264-18.075a22.415 22.415 0 01-1.74 10.016 22.472 22.472 0 01-4.832 7.167 22.471 22.471 0 01-7.167 4.832 22.41 22.41 0 01-10.016 1.738c2.412 7.688 9.592 13.266 18.076 13.266 3.96 0 7.634-1.216 10.674-3.293l7.465 2.488-2.489-7.464a18.855 18.855 0 003.293-10.675z"/></g></svg>