<svg width="68" height="54" xmlns="http://www.w3.org/2000/svg"><defs><linearGradient x1="50%" y1="0%" x2="50%" y2="100%" id="a"><stop stop-color="#7932FF" offset="0%"/><stop stop-color="#564FFF" offset="100%"/></linearGradient></defs><g transform="translate(-372 -1568)" fill="url(#a)" fill-rule="evenodd" opacity=".862"><path d="M434.999 1568h-46.31c-2.779 0-5.001 2.226-5.001 4.873v28.034c0 2.707 2.284 4.873 5 4.873h31.924l7.224 7.099c.309.3.68.481 1.111.481.865 0 1.606-.662 1.606-1.564v-6.016h4.446c2.778 0 5.001-2.226 5.001-4.873v-28.034c0-2.707-2.285-4.873-5.001-4.873zm-39.21 24.124c-2.53 0-4.63-2.046-4.63-4.512 0-2.467 2.1-4.512 4.63-4.512 2.532 0 4.632 2.045 4.632 4.512 0 2.466-2.038 4.512-4.631 4.512zm16.24 0c-2.532 0-4.631-2.046-4.631-4.512 0-2.467 2.1-4.512 4.631-4.512 2.532 0 4.631 2.045 4.631 4.512 0 2.466-2.1 4.512-4.631 4.512zm16.177 0c-2.531 0-4.63-2.046-4.63-4.512 0-2.467 2.099-4.512 4.63-4.512 2.532 0 4.631 2.045 4.631 4.512 0 2.466-2.099 4.512-4.63 4.512z"/><path d="M380.383 1601.434v-9.674h-5.09c-1.801 0-3.291 1.46-3.291 3.225v18.618c-.062 1.887 1.428 3.347 3.29 3.347h2.918v4.016c0 .547.496 1.034 1.055 1.034.31 0 .559-.122.745-.304l4.78-4.685h21.107c1.8 0 3.29-1.46 3.29-3.225v-4.624h-20.92c-4.346 0-7.884-3.468-7.884-7.728z"/></g></svg>