<svg width="47" height="54" xmlns="http://www.w3.org/2000/svg"><defs><linearGradient x1="50%" y1="0%" x2="50%" y2="100%" id="a"><stop stop-color="#7932FF" offset="0%"/><stop stop-color="#564FFF" offset="100%"/></linearGradient></defs><path d="M46.941 13.9c-.067-1.421-.067-2.777-.067-4.133 0-1.098-.868-1.937-2.003-1.937-8.348 0-14.692-2.325-19.968-7.297a2.112 2.112 0 00-2.804 0C16.823 5.505 10.479 7.83 2.13 7.83.996 7.83.128 8.67.128 9.767c0 1.356 0 2.712-.067 4.133-.267 13.56-.668 32.157 22.772 39.97l.668.13.668-.13c23.373-7.813 23.04-26.345 22.772-39.97zM21.898 32.69c-.4.323-.868.517-1.402.517h-.067a1.905 1.905 0 01-1.402-.646l-6.21-6.65 3.004-2.584 4.875 5.23 10.819-9.944 2.738 2.842L21.898 32.69z" fill="url(#a)" fill-rule="evenodd" opacity=".862"/></svg>