<svg width="68" height="69" xmlns="http://www.w3.org/2000/svg"><defs><linearGradient x1="50%" y1="0%" x2="50%" y2="100%" id="a"><stop stop-color="#7932FF" offset="0%"/><stop stop-color="#564FFF" offset="100%"/></linearGradient></defs><g transform="translate(-172 -1557)" fill="url(#a)" fill-rule="evenodd" opacity=".862"><path d="M194.873 1587a17.213 17.213 0 015.45-3.712 10.296 10.296 0 01-3.478-7.724c0-5.675 4.584-10.292 10.218-10.292 5.633 0 10.217 4.617 10.217 10.291 0 3.078-1.35 5.842-3.483 7.73a17.317 17.317 0 019.173 9.284 21.401 21.401 0 005.343-14.174c0-11.802-9.533-21.403-21.25-21.403-11.718 0-21.25 9.601-21.25 21.403 0 5.432 2.02 10.397 5.343 14.175a17.322 17.322 0 013.717-5.577z"/><path d="M193.25 1597.608c3.699 2.932 8.3 4.673 13.282 4.673 4.982 0 9.583-1.741 13.28-4.673-1.705-6.116-7.084-10.42-13.28-10.42-3.698 0-7.174 1.51-9.79 4.253a14.59 14.59 0 00-3.492 6.167zM213.438 1575.867c0-3.864-3.099-7.008-6.907-7.008s-6.906 3.144-6.906 7.008 3.098 7.008 6.906 7.008 6.906-3.144 6.906-7.008zM226.188 1606.594H240V1626h-13.813zM172 1626h49.938v-19.406H172V1626zm37.6-11.71h3.938v4.014h-3.937v-4.015zm-7.283 0h3.937v4.014h-3.937v-4.015zm-7.284 0h3.937v4.014h-3.937v-4.015zm-7.284 0h3.937v4.014h-3.937v-4.015zm-7.284 0h3.937v4.014h-3.937v-4.015z"/></g></svg>