<svg width="49" height="55" xmlns="http://www.w3.org/2000/svg"><defs><linearGradient x1="50%" y1="0%" x2="50%" y2="100%" id="a"><stop stop-color="#7932FF" offset="0%"/><stop stop-color="#564FFF" offset="100%"/></linearGradient></defs><g transform="translate(-591 -1934)" fill="url(#a)" fill-rule="evenodd" opacity=".862"><path d="M631.039 1969.818a12.031 12.031 0 01-9.691 4.87h-5.584a4.458 4.458 0 01-4.193-2.894 14.29 14.29 0 01-2.255-.878 15.175 15.175 0 01-4.212-3.07c-8.067 1.745-14.104 8.824-14.104 17.292v1.107c0 1.521 1.253 2.755 2.798 2.755h43.404c1.545 0 2.798-1.234 2.798-2.755v-1.107c0-6.542-3.603-12.254-8.961-15.32z"/><path d="M601.634 1961.884c1.199 0 2.242-.668 2.783-1.655l.043.117.013.035c1.269 3.357 3.737 6.172 6.992 7.401a4.438 4.438 0 013.766-2.094h5.569c.555 0 1.072-.157 1.525-.412.761-.428 1.446-1.513 1.8-2.089.565-.92 1.003-1.896 1.392-2.96.218.4.518.746.878 1.018v1.373c0 3.102-2.51 5.626-5.596 5.626h-5.568a1.911 1.911 0 00-1.906 1.916c0 1.059.853 1.917 1.906 1.917h5.568c5.188 0 9.408-4.243 9.408-9.459v-1.373a3.195 3.195 0 001.271-2.555v-7.995c0-1.067-.52-2.01-1.319-2.59-.62-7.882-7.196-14.105-15.192-14.105-7.995 0-14.572 6.223-15.192 14.104a3.194 3.194 0 00-1.318 2.59v7.995c0 1.77 1.429 3.195 3.177 3.195zm13.333-24.05c5.92 0 10.801 4.547 11.372 10.35a3.202 3.202 0 00-.893 1.11c-1.799-4.719-5.814-8.004-10.479-8.004-4.765 0-8.716 3.398-10.471 7.984l-.008.02a3.202 3.202 0 00-.892-1.11c.57-5.803 5.452-10.35 11.371-10.35z"/></g></svg>