<svg width="64" height="65" xmlns="http://www.w3.org/2000/svg"><defs><linearGradient x1="50%" y1="0%" x2="50%" y2="100%" id="a"><stop stop-color="#7932FF" offset="0%"/><stop stop-color="#564FFF" offset="100%"/></linearGradient></defs><path d="M32 0C14.357 0 0 14.579 0 32.5 0 50.422 14.356 65 32 65c17.646 0 32-14.578 32-32.5C64 14.579 49.645 0 32 0zM46.76 27.492L29.957 44.557a.993.993 0 01-1.38 0L17.305 33.11a.993.993 0 01-.284-.701c0-.266.102-.516.284-.703l1.441-1.463a.962.962 0 01.691-.287.96.96 0 01.69.287l8.787 8.925c.194.2.51.2.706 0l14.317-14.541a.993.993 0 011.38 0l1.442 1.465a.996.996 0 010 1.402z" fill="url(#a)" fill-rule="evenodd" opacity=".862"/></svg>