<svg width="84" height="48" xmlns="http://www.w3.org/2000/svg"><defs><linearGradient x1="50%" y1="0%" x2="50%" y2="100%" id="a"><stop stop-color="#7932FF" offset="0%"/><stop stop-color="#564FFF" offset="100%"/></linearGradient></defs><path d="M0 0v33.103h34.617L42 48l7.383-14.897H84V0H0zm24.101 24.092l-5.07-2.69-5.07 2.69.969-5.696-4.102-4.033 5.668-.831 2.535-5.182 2.535 5.182 5.668.83-4.101 4.034.968 5.696zm22-5.696l.969 5.696-5.07-2.69-5.07 2.69.968-5.696-4.101-4.033 5.668-.831L42 8.35l2.535 5.182 5.668.83-4.101 4.034zm23.938 5.696l-5.07-2.69-5.07 2.69.968-5.696-4.101-4.033 5.668-.831 2.535-5.182 2.535 5.182 5.668.83-4.102 4.034.969 5.696z" fill="url(#a)" fill-rule="evenodd" opacity=".862"/></svg>