<svg width="62" height="70" xmlns="http://www.w3.org/2000/svg"><defs><linearGradient x1="50%" y1="0%" x2="50%" y2="100%" id="a"><stop stop-color="#7932FF" offset="0%"/><stop stop-color="#564FFF" offset="100%"/></linearGradient></defs><g transform="translate(-784 -1552)" fill="url(#a)" fill-rule="evenodd" opacity=".862"><path d="M804.44 1565.869c-1.573-1.584-2.268-2.36-2.268-4.177 0-1.816.695-2.592 2.268-4.177a3.247 3.247 0 000-4.569 3.19 3.19 0 00-4.535 0c-1.75 1.763-4.147 4.177-4.146 8.746-.001 4.569 2.396 6.983 4.146 8.746 1.572 1.584 2.267 2.361 2.267 4.177 0 1.785 1.436 3.231 3.207 3.231s3.207-1.446 3.207-3.23c0-4.57-2.397-6.984-4.147-8.747zM819.405 1565.869c-1.572-1.584-2.267-2.36-2.267-4.177 0-1.816.695-2.592 2.267-4.177a3.247 3.247 0 000-4.569 3.19 3.19 0 00-4.535 0c-1.75 1.763-4.147 4.178-4.146 8.746 0 4.569 2.396 6.983 4.146 8.746 1.573 1.584 2.268 2.361 2.268 4.177 0 1.785 1.436 3.231 3.207 3.231 1.77 0 3.207-1.446 3.207-3.23 0-4.57-2.397-6.984-4.147-8.747zM831.704 1607.342H834.64c6.264-.005 11.359-5.17 11.359-11.517 0-6.35-5.1-11.517-11.367-11.517h-45.466c-1.712 0-3.1 1.406-3.1 3.14v10.47c0 7.045 3 13.392 7.775 17.8H787.1c-1.712 0-3.1 1.406-3.1 3.141 0 1.734 1.388 3.141 3.1 3.141h45.467c1.712 0 3.1-1.407 3.1-3.141 0-1.735-1.388-3.141-3.1-3.141h-6.742a24.188 24.188 0 005.879-8.376zm1.896-9.423v-7.33h1.033c2.85 0 5.167 2.35 5.167 5.236 0 2.887-2.318 5.235-5.167 5.235h-1.235c.132-1.028.202-2.077.202-3.141z"/></g></svg>