<svg width="40" height="63" xmlns="http://www.w3.org/2000/svg"><defs><linearGradient x1="50%" y1="0%" x2="50%" y2="100%" id="a"><stop stop-color="#7932FF" offset="0%"/><stop stop-color="#564FFF" offset="100%"/></linearGradient></defs><path d="M40 0L29.623 12.964c-2.848-1.67-6.254-2.503-9.75-2.503-3.52 0-6.825.844-9.687 2.542L.03 0 .023 32.564c-.051.851 0 1.718 0 2.62 0 12.46 4.932 23.152 11.99 27.755-3.975-5.281-7.416-11.013-5.822-16.58 9.135-.38 10.1-.43 10.1-.43l3.227 2.71 3.968-2.71c6.644.05 9.78.191 9.78.191.411 3.49-.177 11.14-5.857 16.88 7.104-4.572 12.134-15.303 12.134-27.814 0-.877-.037-1.724-.037-2.552L40 0zM15.4 36.722c-.953.394-3.089 1.69-4.08 2.005-.993.315-2.366.511-2.9 0-.534-.511-2.251-2.202-2.594-2.594-.343-.395-.572-3.54 1.45-3.381 2.059.16 7.629 2.515 7.972 2.633.344.118 1.107.943.153 1.337zm18.23-.589c-.343.392-2.06 2.083-2.594 2.594-.536.511-1.907.315-2.899 0-.991-.314-3.128-1.611-4.082-2.005-.954-.394-.19-1.219.152-1.337.344-.118 5.914-2.473 7.974-2.633 2.022-.16 1.793 2.986 1.449 3.381z" fill="url(#a)" fill-rule="evenodd" opacity=".862"/></svg>