<svg width="46" height="54" xmlns="http://www.w3.org/2000/svg"><defs><linearGradient x1="50%" y1="0%" x2="50%" y2="100%" id="a"><stop stop-color="#7932FF" offset="0%"/><stop stop-color="#564FFF" offset="100%"/></linearGradient></defs><g transform="translate(-990 -1941)" fill="url(#a)" fill-rule="evenodd" opacity=".862"><path d="M1017.369 1976.966c-.22-.194-.496-.339-.783-.46-.623-.262-1.305-.421-1.981-.565v4.235c1.098-.1 2.36-.422 2.936-1.25.276-.396.33-.882.218-1.322a1.252 1.252 0 00-.39-.638z"/><path d="M1016.741 1979.122l.006-.009a.599.599 0 00-.006.01zM1008.62 1968.631a1.499 1.499 0 00-.417.823c-.04.298-.017.63.138.91.148.267.457.464.776.623a7.11 7.11 0 001.154.434c.337.099.716.194 1.124.285v-4.235c-1.031.16-2.158.503-2.775 1.16zM1016.754 1979.1l-.02.035.02-.035z"/><path d="M1016.744 1979.119c.001-.003.001-.003 0 0z"/><path d="M1015.905 1952.75c4.219-3.451 7.038-11.226 5.303-11.566-2.305-.451-7.31 1.53-9.73 1.88-3.431.403-7.169-3.624-9.267-1.38-1.705 1.826 1.223 8.462 5.805 11.353-13.67 6.542-32.883 39.383.636 41.765 46.38 3.298 23.156-35.678 7.253-42.052zm3.983 25.899c-.142 1.28-.84 2.438-1.88 3.224-1.1.83-2.48 1.216-3.85 1.324v1.415c0 .378-.17.744-.461.995-.4.345-.988.43-1.474.212a1.338 1.338 0 01-.794-1.207v-1.546a9.15 9.15 0 01-.699-.157c-1.28-.343-2.469-1.01-3.337-2a5.83 5.83 0 01-1.198-2.135c-.045-.147-.092-.296-.108-.45a1.3 1.3 0 01.148-.748 1.385 1.385 0 011.33-.708 1.369 1.369 0 011.174.905c.052.153.087.31.145.462.058.15.128.296.21.436a3.4 3.4 0 00.6.746c.481.452 1.095.746 1.735.921v-5.255c-1.251-.316-2.543-.723-3.577-1.506-.502-.38-.928-.853-1.207-1.413-.295-.59-.417-1.248-.422-1.901a4.43 4.43 0 01.409-1.926 4.702 4.702 0 011.12-1.495c1.004-.9 2.339-1.403 3.677-1.587v-1.469c0-.378.17-.744.461-.995.4-.344.988-.43 1.473-.212.48.215.794.694.794 1.207v1.461c.179.022.357.048.534.08 1.314.23 2.6.76 3.561 1.682.456.437.829.958 1.09 1.526.074.159.138.32.194.486.051.154.103.313.128.474.04.257 0 .522-.114.757-.231.481-.75.788-1.295.765a1.374 1.374 0 01-1.214-.85c-.057-.146-.086-.3-.144-.444a2.319 2.319 0 00-.223-.418 2.564 2.564 0 00-.644-.659c-.547-.393-1.21-.598-1.873-.712v5.03c.788.183 1.576.383 2.33.673 1.14.438 2.221 1.11 2.844 2.168-.097-.165-.19-.326.003.005.19.326.1.17.004.008.495.85.658 1.866.55 2.831zM1016.754 1979.1l-.02.035.02-.035z"/></g></svg>