<svg width="49" height="55" xmlns="http://www.w3.org/2000/svg"><defs><linearGradient x1="50%" y1="0%" x2="50%" y2="100%" id="a"><stop stop-color="#7932FF" offset="0%"/><stop stop-color="#564FFF" offset="100%"/></linearGradient></defs><path d="M44.53 30.402c2.36.107 4.362-1.748 4.465-4.143.104-2.396-1.556-4.55-3.917-4.653l-15.68-1.964s3.268-5.453 3.268-13.532C32.666.725 28.809 0 26.54 0c-1.784 0-2.264 3.448-2.264 3.448h-.004c-.404 2.212-.93 4.143-2.758 7.7-2.046 3.985-4.833 3.61-8.087 7.16-.574.626-1.346 1.658-2.098 2.928a1.006 1.006 0 00-.174.293c-.067.157-.147.267-.218.412-.124.229-.247.457-.367.697-2.014 2.009-5.151 1.803-6.487 1.803-2.68 0-4.083 1.554-4.083 4.074L0 47.138c0 2.828 1.16 3.781 4.084 3.781h4.083c2.056 0 3.666 1.176 6.125 2.037 3.369 1.164 8.4 2.038 17.067 2.038 1.515 0 6.216.006 6.216.006 1.44 0 2.596-.656 3.43-1.448.318-.301.649-.738.79-1.592.024-.132.048-.687.044-.761.11-2.442-1.37-3.326-2.208-3.604.023-.008.008-.03.053-.027l2.66.119c2.363.107 4.694-1.59 4.694-4.477 0-2.394-1.945-4.082-4.299-4.197l1.41.066c2.362.103 4.359-1.751 4.468-4.147.103-2.395-1.727-4.423-4.087-4.53z" fill="url(#a)" fill-rule="evenodd" opacity=".862"/></svg>